# xmcd
#
# Track frame offsets:
#	150
#	23585
#	40438
#	60985
#	79058
#	94226
#	110261
#	130631
#	150025
#	169081
#	185537
#	203993
#	227885
#	250918
#	272150
#	298215
#	318374
#	340098
#
# Disc length: 4766 seconds
#
# Revision: 1
# Processed by: cddbd v1.5.2PL0 Copyright (c) Steve Scherf et al.
# Submitted via: audiograbber 1.80.04
#
DISCID=f1129c12
DTITLE=JOE COCKER - Heart and Soul
DYEAR=2004
DGENRE=
TTITLE0=What's Going On
TTITLE1=Chain Of Fools
TTITLE2=One
TTITLE3=I Who Have Nothing
TTITLE4=Maybe Im Amazed 
TTITLE5=I Keep Forgetting
TTITLE6=I Put A Spell On You
TTITLE7=Every Kind Of People
TTITLE8=Love Don't Live Here Anymore
TTITLE9=Do't Let Me Be Lonely
TTITLE10=Jealous Guy
TTITLE11=Everybody Hurts
TTITLE12=Unchain My Heart
TTITLE13=Noubliez Jamais
TTITLE14=Could You Be Loved
TTITLE15=My Fathers Son
TTITLE16=Tonight
TTITLE17=While You See A Chance
EXTD=MCA Records
EXTT0=
EXTT1=
EXTT2=
EXTT3=
EXTT4=
EXTT5=
EXTT6=
EXTT7=
EXTT8=
EXTT9=
EXTT10=
EXTT11=
EXTT12=
EXTT13=
EXTT14=
EXTT15=
EXTT16=
EXTT17=
PLAYORDER=
